<?xml version="1.0" encoding="utf-8"?>
<!-- Generator: Adobe Illustrator 23.0.1, SVG Export Plug-In . SVG Version: 6.00 Build 0)  -->
<svg version="1.1" id="Layer_1" xmlns="http://www.w3.org/2000/svg" xmlns:xlink="http://www.w3.org/1999/xlink" x="0px" y="0px"
	 viewBox="0 0 1424 300" style="enable-background:new 0 0 1424 300;" xml:space="preserve">
<style type="text/css">
	.st0{fill:#FF0000;}
</style>
<g>
	<path d="M293.2,112.7c-8.7-34-27.7-61.4-55.8-82.3C216.4,14.9,192.8,6,167,2.8c-3.1-0.2-6.3-0.5-9.4-0.6
		c-8.3-0.4-16.6-0.1-24.9,0.6c-7.6,1-15.3,2.3-22.7,4.5c-33.3,9.6-60.3,28.4-80.6,56.5C14,85.2,5.1,109.1,2.5,135.4
		c0,1,0.1,2.1,0,3.1c-0.6,6.1-0.7,12.2-0.4,18.4c0.1,2.5,0.7,5,0.3,7.6c1.3,13.5,4.1,26.7,9.4,39.2c22.8,53.6,62.9,85,120.8,93
		c24.8,3.4,49,0,72.3-9.5C274.7,258.9,311.8,185.5,293.2,112.7z M258.8,225.6c-19.2,27.1-44.9,44.9-77.1,53
		C125.4,292.8,65.6,267.7,36,217.9c-9.8-16.5-8.8-37.8,2.6-53.3c16.1-21.8,36.3-38.6,60.7-50.4c0.5-0.2,1-0.4,1.4-0.7
		c1.3-0.8,2.4-0.6,3.3,0.5c0.9,1,0.6,2.1,0,3.1c-3.3,5.2-5.9,10.7-7.9,16.5c-8.5,24.6-1.4,51.6,17.7,67.1
		c12.3,9.9,26.7,13.8,42.1,14.1c15.9,0.3,31.8,0.1,47.7,0.1c0,0,0,0,0,0.1c16.6,0,33.2,0,49.8,0c2.9,0,5.2,0.7,6.6,3.3
		C261.4,221,260.5,223.3,258.8,225.6z M190.1,200.4c0.2,0.2,0.2,0.4,0.5,1c-11.8,0.3-21.7-3.5-29.9-11.5
		c-12.3-11.9-16.7-26.5-14.4-43.4c2.2-16.3,9.6-29.6,22.8-39.7c9.7-7.4,20.6-9.1,32.3-6.9c0.5,0.1,1.2,0,1.3,0.7
		c0.1,0.8-0.8,0.8-1.2,1.1c-12.8,7.3-22.2,17.8-26,32C168.7,158.4,171.2,181.3,190.1,200.4z M154.9,100.8
		c-13.3,13-20.4,28.8-22.3,47.2c-1.7,17.1,2.3,32.5,13.2,45.9c2,2.4,4.3,4.6,6.4,7c-17.7-1.4-32.5-7.9-41.1-24.3
		c-8.5-16.4-6.6-32.8,2-48.5c8.2-15.1,20.8-24.8,37.7-28.6c1.4-0.3,2.9-0.5,4.4-0.7c0.3,0,0.6,0,1,0
		C156.3,99.9,155.5,100.3,154.9,100.8z M282.5,155c-1.1,21.9-18.4,41.3-40.1,45.5c-22.9,4.5-42.6-6.6-51.7-23.7
		c-10-18.8-6.3-50.7,17.7-63.4c7.2-3.8,13.3-2.4,17.9,4.4c1.7,2.5,3.5,5,5.4,7.5c1.4,1.8,3.1,3.2,5.2,3.9c3.5,1.1,7,1,9.9-1.5
		c3.1-2.6,3-6.2,2.3-9.7c-1-5-4-8.9-7.7-12.3c-8.7-8.2-19.3-13.1-30.7-16c-20.4-5.2-41.1-6-62-3.5c-30.5,3.5-58.1,14.5-83,32.6
		c-13.3,9.7-25,21-35,34c-1.4,1.8-2.8,3.6-5.2,4.1c-4.8,0.9-8.5-2.3-8.4-7.5c0.3-23.7,6.1-45.9,18.3-66.3
		c18.5-31,45.4-51.2,80.1-61.1c2.4-0.7,4.8-1.1,7.2-1.7c1.6-0.2,3.2-0.6,4.8-0.9c12.6-2.1,25.3-2.4,38.1-0.9
		C189,21,210.2,29.5,229,43.6c23.8,17.9,40,41.2,48.4,69.8C281.5,126.9,283.2,140.8,282.5,155z"/>
	<g>
		<path d="M447.5,99l-14.4,84h-14.3l-9.1-54.7l-9.1,54.7h-14.3L372,99h12.9l9.7,63.4l9.6-63.4h11.1l9.5,63.4l9.8-63.4H447.5z"/>
		<path d="M487.9,172.2c0,5.9-4.7,10.8-10.8,10.8h-14.4c-5.9,0-10.8-4.9-10.8-10.8v-34.8c0-6.1,4.9-10.8,10.8-10.8h14.4
			c6.1,0,10.8,4.7,10.8,10.8V172.2z M477.1,172.2v-34.8h-14.4v34.8H477.1z"/>
		<path d="M525.1,137.4h-14.4V183h-10.8v-56.4h10.8v5.5c1.3-3.7,4.2-5.5,8.6-5.5h5.8V137.4z"/>
		<path d="M543.3,183h-10.8V99h10.8V183z"/>
		<path d="M591.2,183h-10.8v-5.5c-1.3,3.7-4.2,5.5-8.6,5.5h-5.8c-5.9,0-10.8-4.9-10.8-10.8v-34.8c0-6.1,4.9-10.8,10.8-10.8h5.8
			c4.4,0,7.3,1.8,8.6,5.5V99h10.8V183z M580.4,172.2v-34.8h-14.4v34.8H580.4z"/>
		<path d="M663.4,145.9c4,3.8,5.8,7.8,5.8,12.7V171c0,6.6-5.4,12-12,12h-18c-6.6,0-12-5.4-12-12v-12h12v12h18v-13.9L632.9,133
			c-4-3.8-5.8-7.8-5.8-12.7V111c0-6.6,5.4-12,12-12h18c6.6,0,12,5.4,12,12v12h-12v-12h-18v10.8L663.4,145.9z"/>
		<path d="M717.1,183h-10.8v-5.5c-1.3,3.7-4.2,5.5-8.6,5.5h-5.8c-5.9,0-10.8-4.9-10.8-10.8v-45.6h10.8v45.6h14.4v-45.6h10.8V183z"/>
		<path d="M754.2,137.4h-14.4V183h-10.8v-56.4h10.8v5.5c1.3-3.7,4.2-5.5,8.6-5.5h5.8V137.4z"/>
		<path d="M787.4,137.4h-10.8V183h-10.8v-45.6h-8.4v-10.8h8.4v-16.8c0-6.1,4.9-10.8,10.8-10.8h10.8v10.8h-10.8v16.8h10.8V137.4z"/>
		<path d="M856.6,145.9c4,3.8,5.8,7.8,5.8,12.7V171c0,6.6-5.4,12-12,12h-18c-6.6,0-12-5.4-12-12v-12h12v12h18v-13.9L826.2,133
			c-4-3.8-5.8-7.8-5.8-12.7V111c0-6.6,5.4-12,12-12h18c6.6,0,12,5.4,12,12v12h-12v-12h-18v10.8L856.6,145.9z"/>
		<path d="M910.3,172.2c0,5.9-4.7,10.8-10.8,10.8h-14.4c-5.9,0-10.8-4.9-10.8-10.8v-34.8c0-6.1,4.9-10.8,10.8-10.8h14.4
			c6.1,0,10.8,4.7,10.8,10.8v10.8h-10.8v-10.8h-14.4v34.8h14.4v-10.8h10.8V172.2z"/>
		<path d="M947.5,137.4h-14.4V183h-10.8v-56.4h10.8v5.5c1.3-3.7,4.2-5.5,8.6-5.5h5.8V137.4z"/>
		<path d="M986.1,183h-10.8v-4.6c-0.8,3-4.8,4.6-7.1,4.6h-7.1c-5.9,0-11-4.9-11-10.8V159c0-6.6,4.7-10.8,10.8-10.8h7.3
			c4,0,6.2,1.6,7.1,4.6v-15.4h-21.1v-10.8h21.1c6.1,0,10.8,4.7,10.8,10.8V183z M975.3,172.2V159H961v13.2H975.3z"/>
		<path d="M1034,172.2c0,5.9-4.9,10.8-10.8,10.8h-5.8c-4.4,0-7.3-1.8-8.6-5.5V201H998v-74.4h10.8v5.5c1.3-3.7,4.2-5.5,8.6-5.5h5.8
			c5.9,0,10.8,4.9,10.8,10.8V172.2z M1023.2,172.2v-34.8h-14.4v34.8H1023.2z"/>
		<path d="M1081.9,161.4h-25.2v10.8h21.2V183h-21.2c-5.9,0-10.8-4.9-10.8-10.8v-34.8c0-6.1,4.9-10.8,10.8-10.8h14.4
			c6.1,0,10.8,4.7,10.8,10.8V161.4z M1071.2,150.6v-13.2h-14.4v13.2H1071.2z"/>
		<path d="M1119.1,137.4h-14.4V183h-10.8v-56.4h10.8v5.5c1.3-3.7,4.2-5.5,8.6-5.5h5.8V137.4z"/>
		<path d="M1186.5,183h-36V99h12v72h24V183z"/>
		<path d="M1231.4,161.4h-25.2v10.8h21.2V183h-21.2c-5.9,0-10.8-4.9-10.8-10.8v-34.8c0-6.1,4.9-10.8,10.8-10.8h14.4
			c6.1,0,10.8,4.7,10.8,10.8V161.4z M1220.6,150.6v-13.2h-14.4v13.2H1220.6z"/>
		<path d="M1278.2,183h-10.8v-4.6c-0.8,3-4.8,4.6-7.1,4.6h-7.1c-5.9,0-11-4.9-11-10.8V159c0-6.6,4.7-10.8,10.8-10.8h7.3
			c4,0,6.2,1.6,7.1,4.6v-15.4h-21.1v-10.8h21.1c6.1,0,10.8,4.7,10.8,10.8V183z M1267.4,172.2V159h-14.3v13.2H1267.4z"/>
		<path d="M1326.1,190.2c0,5.8-4.9,10.8-10.8,10.8h-18.5v-10.8h18.5v-12.7c-1.3,3.7-4.2,5.5-8.6,5.5h-5.8c-5.9,0-10.8-4.9-10.8-10.8
			v-34.8c0-5.9,4.9-10.8,10.8-10.8h5.8c4.4,0,7.3,1.8,8.6,5.5v-5.5h10.8V190.2z M1315.3,172.2v-34.8h-14.4v34.8H1315.3z"/>
		<path d="M1374.1,183h-10.8v-5.5c-1.3,3.7-4.2,5.5-8.6,5.5h-5.8c-5.9,0-10.8-4.9-10.8-10.8v-45.6h10.8v45.6h14.4v-45.6h10.8V183z"
			/>
		<path d="M1422,161.4h-25.2v10.8h21.2V183h-21.2c-5.9,0-10.8-4.9-10.8-10.8v-34.8c0-6.1,4.9-10.8,10.8-10.8h14.4
			c6.1,0,10.8,4.7,10.8,10.8V161.4z M1411.2,150.6v-13.2h-14.4v13.2H1411.2z"/>
	</g>
</g>
<g>
	<g>
		<path class="st0" d="M614.6,94.9c61.7,36.9,123.4,73.7,185.2,110.6c5,3,9.5-4.8,4.5-7.8C742.6,160.9,680.9,124,619.2,87.1
			C614.2,84.2,609.6,91.9,614.6,94.9L614.6,94.9z"/>
	</g>
</g>
<g>
	<g>
		<path class="st0" d="M794.1,78.5c-53,31.6-102.3,69.5-146,113.1c-12.3,12.3-24.2,25-35.5,38.2c-3.8,4.4,2.6,10.8,6.4,6.4
			c39.8-45.9,85.4-86.7,135.3-121.3c14.5-10,29.3-19.6,44.5-28.6C803.6,83.3,799.1,75.5,794.1,78.5L794.1,78.5z"/>
	</g>
</g>
</svg>
